<svg
  xmlns="http://www.w3.org/2000/svg"
  fill="none"
  viewBox="0 0 32 34"
>
  <circle
    cx="16"
    cy="16"
    r="16"
    fill="#DF57BC"
  />
  <path
    fill="#fff"
    d="M21.144 12.502c-.366-.214-.836-.214-1.254 0l-2.924 1.762-1.984 1.122-2.872 1.762c-.366.214-.836.214-1.254 0L8.611 15.76a1.308 1.308 0 0 1-.627-1.122v-2.67c0-.428.21-.855.627-1.122l2.245-1.336c.366-.213.836-.213 1.254 0l2.245 1.39c.366.213.627.64.627 1.12v1.763l1.984-1.175v-1.816c0-.427-.209-.854-.627-1.121l-4.177-2.51c-.366-.214-.836-.214-1.253 0L6.627 9.723c-.418.214-.627.641-.627 1.068v5.021c0 .427.209.855.627 1.122l4.23 2.51c.365.214.835.214 1.253 0l2.872-1.71 1.984-1.174 2.872-1.71c.366-.213.836-.213 1.253 0l2.246 1.336c.365.214.626.64.626 1.122v2.67c0 .428-.208.855-.626 1.122l-2.193 1.335c-.366.214-.836.214-1.254 0L17.645 21.1a1.308 1.308 0 0 1-.627-1.122V18.27l-1.984 1.175v1.763c0 .427.209.854.627 1.121l4.23 2.51c.365.214.835.214 1.253 0l4.23-2.51c.365-.213.626-.64.626-1.121v-5.074c0-.428-.209-.855-.627-1.122l-4.23-2.51Z"
  />
  <circle
    cx="27"
    cy="29"
    r="5"
    fill="#fff"
  />
  <path
    fill="#DF57BC"
    d="M28.459 28.063a1.562 1.562 0 1 0-3.125 0 .313.313 0 1 0 .625 0 .937.937 0 1 1 .937.937.313.313 0 0 0-.313.313v.625a.313.313 0 1 0 .626 0v-.344a1.563 1.563 0 0 0 1.25-1.532ZM26.896 31.5a.312.312 0 1 0 0-.625.312.312 0 0 0 0 .625Z"
  />
</svg>
